<svg xmlns="http://www.w3.org/2000/svg" xmlns:xlink="http://www.w3.org/1999/xlink" width="500" zoomAndPan="magnify" viewBox="0 0 375 67.499998" height="90" preserveAspectRatio="xMidYMid meet" version="1.0"><defs><g/></defs><g fill="#3b94ff" fill-opacity="1"><g transform="translate(10.568422, 50.079222)"><g><path d="M 21.171875 0.609375 C 17.359375 0.609375 13.941406 -0.125 10.921875 -1.59375 C 7.910156 -3.070312 5.550781 -5.144531 3.84375 -7.8125 C 2.144531 -10.476562 1.296875 -13.492188 1.296875 -16.859375 C 1.296875 -20.222656 2.144531 -23.226562 3.84375 -25.875 C 5.550781 -28.519531 7.910156 -30.582031 10.921875 -32.0625 C 13.941406 -33.539062 17.359375 -34.28125 21.171875 -34.28125 C 25.273438 -34.28125 28.78125 -33.394531 31.6875 -31.625 C 34.601562 -29.863281 36.617188 -27.425781 37.734375 -24.3125 L 26.953125 -19.015625 C 25.640625 -21.972656 23.691406 -23.453125 21.109375 -23.453125 C 19.472656 -23.453125 18.109375 -22.875 17.015625 -21.71875 C 15.929688 -20.570312 15.390625 -18.953125 15.390625 -16.859375 C 15.390625 -14.722656 15.929688 -13.082031 17.015625 -11.9375 C 18.109375 -10.789062 19.472656 -10.21875 21.109375 -10.21875 C 23.691406 -10.21875 25.640625 -11.691406 26.953125 -14.640625 L 37.734375 -9.359375 C 36.617188 -6.234375 34.601562 -3.789062 31.6875 -2.03125 C 28.78125 -0.269531 25.273438 0.609375 21.171875 0.609375 Z M 21.171875 0.609375 "/></g></g></g><g fill="#3b94ff" fill-opacity="1"><g transform="translate(48.413232, 50.079222)"><g><path d="M 20.859375 0.609375 C 17.128906 0.609375 13.773438 -0.132812 10.796875 -1.625 C 7.828125 -3.125 5.5 -5.195312 3.8125 -7.84375 C 2.132812 -10.488281 1.296875 -13.492188 1.296875 -16.859375 C 1.296875 -20.222656 2.132812 -23.226562 3.8125 -25.875 C 5.5 -28.519531 7.828125 -30.582031 10.796875 -32.0625 C 13.773438 -33.539062 17.128906 -34.28125 20.859375 -34.28125 C 24.640625 -34.28125 28.015625 -33.539062 30.984375 -32.0625 C 33.960938 -30.582031 36.28125 -28.519531 37.9375 -25.875 C 39.601562 -23.226562 40.4375 -20.222656 40.4375 -16.859375 C 40.4375 -13.492188 39.601562 -10.488281 37.9375 -7.84375 C 36.28125 -5.195312 33.960938 -3.125 30.984375 -1.625 C 28.015625 -0.132812 24.640625 0.609375 20.859375 0.609375 Z M 20.859375 -10.21875 C 22.460938 -10.21875 23.773438 -10.800781 24.796875 -11.96875 C 25.828125 -13.132812 26.34375 -14.765625 26.34375 -16.859375 C 26.34375 -18.953125 25.828125 -20.570312 24.796875 -21.71875 C 23.773438 -22.875 22.460938 -23.453125 20.859375 -23.453125 C 19.265625 -23.453125 17.953125 -22.875 16.921875 -21.71875 C 15.898438 -20.570312 15.390625 -18.953125 15.390625 -16.859375 C 15.390625 -14.765625 15.898438 -13.132812 16.921875 -11.96875 C 17.953125 -10.800781 19.265625 -10.21875 20.859375 -10.21875 Z M 20.859375 -10.21875 "/></g></g></g><g fill="#3b94ff" fill-opacity="1"><g transform="translate(90.134828, 50.079222)"><g><path d="M 18.15625 -34.28125 C 24.0625 -34.28125 28.570312 -32.957031 31.6875 -30.3125 C 34.8125 -27.664062 36.375 -23.59375 36.375 -18.09375 L 36.375 0 L 23.453125 0 L 23.453125 -4.4375 C 21.847656 -1.070312 18.664062 0.609375 13.90625 0.609375 C 11.238281 0.609375 8.972656 0.148438 7.109375 -0.765625 C 5.242188 -1.691406 3.828125 -2.941406 2.859375 -4.515625 C 1.898438 -6.097656 1.421875 -7.875 1.421875 -9.84375 C 1.421875 -13.164062 2.691406 -15.6875 5.234375 -17.40625 C 7.773438 -19.132812 11.628906 -20 16.796875 -20 L 22.40625 -20 C 21.945312 -22.625 19.832031 -23.9375 16.0625 -23.9375 C 14.539062 -23.9375 13 -23.703125 11.4375 -23.234375 C 9.882812 -22.765625 8.554688 -22.117188 7.453125 -21.296875 L 3.015625 -30.46875 C 4.941406 -31.65625 7.269531 -32.585938 10 -33.265625 C 12.726562 -33.941406 15.445312 -34.28125 18.15625 -34.28125 Z M 18.09375 -7.75 C 19.082031 -7.75 19.960938 -8.015625 20.734375 -8.546875 C 21.515625 -9.085938 22.09375 -9.890625 22.46875 -10.953125 L 22.46875 -13.296875 L 19.015625 -13.296875 C 16.179688 -13.296875 14.765625 -12.351562 14.765625 -10.46875 C 14.765625 -9.6875 15.0625 -9.035156 15.65625 -8.515625 C 16.257812 -8.003906 17.070312 -7.75 18.09375 -7.75 Z M 18.09375 -7.75 "/></g></g></g><g fill="#3b94ff" fill-opacity="1"><g transform="translate(129.45651, 50.079222)"><g><path d="M 21.171875 0.609375 C 17.359375 0.609375 13.941406 -0.125 10.921875 -1.59375 C 7.910156 -3.070312 5.550781 -5.144531 3.84375 -7.8125 C 2.144531 -10.476562 1.296875 -13.492188 1.296875 -16.859375 C 1.296875 -20.222656 2.144531 -23.226562 3.84375 -25.875 C 5.550781 -28.519531 7.910156 -30.582031 10.921875 -32.0625 C 13.941406 -33.539062 17.359375 -34.28125 21.171875 -34.28125 C 25.273438 -34.28125 28.78125 -33.394531 31.6875 -31.625 C 34.601562 -29.863281 36.617188 -27.425781 37.734375 -24.3125 L 26.953125 -19.015625 C 25.640625 -21.972656 23.691406 -23.453125 21.109375 -23.453125 C 19.472656 -23.453125 18.109375 -22.875 17.015625 -21.71875 C 15.929688 -20.570312 15.390625 -18.953125 15.390625 -16.859375 C 15.390625 -14.722656 15.929688 -13.082031 17.015625 -11.9375 C 18.109375 -10.789062 19.472656 -10.21875 21.109375 -10.21875 C 23.691406 -10.21875 25.640625 -11.691406 26.953125 -14.640625 L 37.734375 -9.359375 C 36.617188 -6.234375 34.601562 -3.789062 31.6875 -2.03125 C 28.78125 -0.269531 25.273438 0.609375 21.171875 0.609375 Z M 21.171875 0.609375 "/></g></g></g><g fill="#3b94ff" fill-opacity="1"><g transform="translate(167.301321, 50.079222)"><g><path d="M 26.46875 -34.28125 C 30.613281 -34.28125 33.945312 -33.023438 36.46875 -30.515625 C 38.988281 -28.015625 40.25 -24.242188 40.25 -19.203125 L 40.25 0 L 26.34375 0 L 26.34375 -16.796875 C 26.34375 -20.660156 24.96875 -22.59375 22.21875 -22.59375 C 20.65625 -22.59375 19.390625 -22.046875 18.421875 -20.953125 C 17.460938 -19.867188 16.984375 -18.15625 16.984375 -15.8125 L 16.984375 0 L 3.078125 0 L 3.078125 -45.671875 L 16.984375 -45.671875 L 16.984375 -30.953125 C 19.566406 -33.171875 22.726562 -34.28125 26.46875 -34.28125 Z M 26.46875 -34.28125 "/></g></g></g><g fill="#1d2b48" fill-opacity="1"><g transform="translate(210.509239, 50.079222)"><g><path d="M 38.890625 -16.859375 C 38.890625 -16.660156 38.832031 -15.578125 38.71875 -13.609375 L 15.328125 -13.609375 C 15.816406 -12.328125 16.632812 -11.347656 17.78125 -10.671875 C 18.9375 -9.992188 20.375 -9.65625 22.09375 -9.65625 C 23.570312 -9.65625 24.8125 -9.835938 25.8125 -10.203125 C 26.820312 -10.578125 27.921875 -11.21875 29.109375 -12.125 L 36.375 -4.796875 C 33.09375 -1.191406 28.191406 0.609375 21.671875 0.609375 C 17.609375 0.609375 14.035156 -0.132812 10.953125 -1.625 C 7.878906 -3.125 5.5 -5.207031 3.8125 -7.875 C 2.132812 -10.539062 1.296875 -13.535156 1.296875 -16.859375 C 1.296875 -20.222656 2.125 -23.226562 3.78125 -25.875 C 5.445312 -28.519531 7.722656 -30.582031 10.609375 -32.0625 C 13.503906 -33.539062 16.757812 -34.28125 20.375 -34.28125 C 23.78125 -34.28125 26.882812 -33.601562 29.6875 -32.25 C 32.5 -30.894531 34.734375 -28.90625 36.390625 -26.28125 C 38.054688 -23.65625 38.890625 -20.515625 38.890625 -16.859375 Z M 20.5 -24.796875 C 19.0625 -24.796875 17.867188 -24.40625 16.921875 -23.625 C 15.984375 -22.851562 15.367188 -21.75 15.078125 -20.3125 L 25.90625 -20.3125 C 25.625 -21.707031 25.007812 -22.800781 24.0625 -23.59375 C 23.125 -24.394531 21.9375 -24.796875 20.5 -24.796875 Z M 20.5 -24.796875 "/></g></g></g><g fill="#1d2b48" fill-opacity="1"><g transform="translate(250.692426, 50.079222)"><g><path d="M 18.15625 -34.28125 C 24.0625 -34.28125 28.570312 -32.957031 31.6875 -30.3125 C 34.8125 -27.664062 36.375 -23.59375 36.375 -18.09375 L 36.375 0 L 23.453125 0 L 23.453125 -4.4375 C 21.847656 -1.070312 18.664062 0.609375 13.90625 0.609375 C 11.238281 0.609375 8.972656 0.148438 7.109375 -0.765625 C 5.242188 -1.691406 3.828125 -2.941406 2.859375 -4.515625 C 1.898438 -6.097656 1.421875 -7.875 1.421875 -9.84375 C 1.421875 -13.164062 2.691406 -15.6875 5.234375 -17.40625 C 7.773438 -19.132812 11.628906 -20 16.796875 -20 L 22.40625 -20 C 21.945312 -22.625 19.832031 -23.9375 16.0625 -23.9375 C 14.539062 -23.9375 13 -23.703125 11.4375 -23.234375 C 9.882812 -22.765625 8.554688 -22.117188 7.453125 -21.296875 L 3.015625 -30.46875 C 4.941406 -31.65625 7.269531 -32.585938 10 -33.265625 C 12.726562 -33.941406 15.445312 -34.28125 18.15625 -34.28125 Z M 18.09375 -7.75 C 19.082031 -7.75 19.960938 -8.015625 20.734375 -8.546875 C 21.515625 -9.085938 22.09375 -9.890625 22.46875 -10.953125 L 22.46875 -13.296875 L 19.015625 -13.296875 C 16.179688 -13.296875 14.765625 -12.351562 14.765625 -10.46875 C 14.765625 -9.6875 15.0625 -9.035156 15.65625 -8.515625 C 16.257812 -8.003906 17.070312 -7.75 18.09375 -7.75 Z M 18.09375 -7.75 "/></g></g></g><g fill="#1d2b48" fill-opacity="1"><g transform="translate(290.014108, 50.079222)"><g><path d="M 16.25 0.609375 C 13.375 0.609375 10.539062 0.300781 7.75 -0.3125 C 4.957031 -0.925781 2.703125 -1.722656 0.984375 -2.703125 L 4.796875 -11.875 C 6.359375 -10.9375 8.207031 -10.195312 10.34375 -9.65625 C 12.476562 -9.125 14.550781 -8.859375 16.5625 -8.859375 C 18.15625 -8.859375 19.269531 -8.988281 19.90625 -9.25 C 20.539062 -9.519531 20.859375 -9.925781 20.859375 -10.46875 C 20.859375 -11 20.457031 -11.363281 19.65625 -11.5625 C 18.863281 -11.769531 17.5625 -11.976562 15.75 -12.1875 C 13 -12.507812 10.660156 -12.925781 8.734375 -13.4375 C 6.804688 -13.957031 5.113281 -14.957031 3.65625 -16.4375 C 2.207031 -17.914062 1.484375 -20.023438 1.484375 -22.765625 C 1.484375 -24.941406 2.140625 -26.890625 3.453125 -28.609375 C 4.765625 -30.335938 6.722656 -31.710938 9.328125 -32.734375 C 11.929688 -33.765625 15.054688 -34.28125 18.703125 -34.28125 C 21.253906 -34.28125 23.75 -34.039062 26.1875 -33.5625 C 28.625 -33.09375 30.707031 -32.410156 32.4375 -31.515625 L 28.625 -22.34375 C 25.664062 -23.976562 22.421875 -24.796875 18.890625 -24.796875 C 15.859375 -24.796875 14.34375 -24.265625 14.34375 -23.203125 C 14.34375 -22.671875 14.75 -22.289062 15.5625 -22.0625 C 16.382812 -21.832031 17.679688 -21.617188 19.453125 -21.421875 C 22.203125 -21.085938 24.53125 -20.65625 26.4375 -20.125 C 28.34375 -19.59375 30.023438 -18.585938 31.484375 -17.109375 C 32.941406 -15.628906 33.671875 -13.515625 33.671875 -10.765625 C 33.671875 -8.671875 33.015625 -6.765625 31.703125 -5.046875 C 30.390625 -3.328125 28.414062 -1.953125 25.78125 -0.921875 C 23.15625 0.0976562 19.976562 0.609375 16.25 0.609375 Z M 16.25 0.609375 "/></g></g></g><g fill="#1d2b48" fill-opacity="1"><g transform="translate(324.782112, 50.079222)"><g><path d="M 40.5625 -33.671875 L 26.71875 0.671875 C 24.945312 5.066406 22.75 8.144531 20.125 9.90625 C 17.5 11.675781 14.28125 12.5625 10.46875 12.5625 C 8.570312 12.5625 6.671875 12.28125 4.765625 11.71875 C 2.859375 11.164062 1.351562 10.441406 0.25 9.546875 L 4.859375 0 C 5.554688 0.53125 6.347656 0.957031 7.234375 1.28125 C 8.117188 1.613281 8.96875 1.78125 9.78125 1.78125 C 11.300781 1.78125 12.453125 1.332031 13.234375 0.4375 L -0.921875 -33.671875 L 13.359375 -33.671875 L 20.3125 -15.640625 L 27.390625 -33.671875 Z M 40.5625 -33.671875 "/></g></g></g></svg>