<svg xmlns="http://www.w3.org/2000/svg" xmlns:xlink="http://www.w3.org/1999/xlink" width="500"
    zoomAndPan="magnify" viewBox="0 0 375 67.499998" height="90" preserveAspectRatio="xMidYMid meet"
    version="1.0">
    <defs>
        <g />
        <clipPath id="7180b47a05">
            <path
                d="M 1.378906 0 L 373.621094 0 L 373.621094 67.003906 L 1.378906 67.003906 Z M 1.378906 0 "
                clip-rule="nonzero" />
        </clipPath>
    </defs>
    <g clip-path="url(#7180b47a05)">
        <path fill="#ffffff"
            d="M 1.378906 0 L 373.621094 0 L 373.621094 67.003906 L 1.378906 67.003906 Z M 1.378906 0 "
            fill-opacity="1" fill-rule="nonzero" />
        <path fill="#ffffff"
            d="M 1.378906 0 L 373.621094 0 L 373.621094 67.003906 L 1.378906 67.003906 Z M 1.378906 0 "
            fill-opacity="1" fill-rule="nonzero" />
    </g>
    <g fill="#3b94ff" fill-opacity="1">
        <g transform="translate(14.023299, 50.079222)">
            <g>
                <path
                    d="M 49.546875 -43.078125 L 31.328125 0 L 17.046875 0 L -1.171875 -43.078125 L 14.46875 -43.078125 L 24.734375 -17.90625 L 35.265625 -43.078125 Z M 49.546875 -43.078125 " />
            </g>
        </g>
    </g>
    <g fill="#3b94ff" fill-opacity="1">
        <g transform="translate(62.390813, 50.079222)">
            <g>
                <path
                    d="M 38.890625 -16.859375 C 38.890625 -16.660156 38.832031 -15.578125 38.71875 -13.609375 L 15.328125 -13.609375 C 15.816406 -12.328125 16.632812 -11.347656 17.78125 -10.671875 C 18.9375 -9.992188 20.375 -9.65625 22.09375 -9.65625 C 23.570312 -9.65625 24.8125 -9.835938 25.8125 -10.203125 C 26.820312 -10.578125 27.921875 -11.21875 29.109375 -12.125 L 36.375 -4.796875 C 33.09375 -1.191406 28.191406 0.609375 21.671875 0.609375 C 17.609375 0.609375 14.035156 -0.132812 10.953125 -1.625 C 7.878906 -3.125 5.5 -5.207031 3.8125 -7.875 C 2.132812 -10.539062 1.296875 -13.535156 1.296875 -16.859375 C 1.296875 -20.222656 2.125 -23.226562 3.78125 -25.875 C 5.445312 -28.519531 7.722656 -30.582031 10.609375 -32.0625 C 13.503906 -33.539062 16.757812 -34.28125 20.375 -34.28125 C 23.78125 -34.28125 26.882812 -33.601562 29.6875 -32.25 C 32.5 -30.894531 34.734375 -28.90625 36.390625 -26.28125 C 38.054688 -23.65625 38.890625 -20.515625 38.890625 -16.859375 Z M 20.5 -24.796875 C 19.0625 -24.796875 17.867188 -24.40625 16.921875 -23.625 C 15.984375 -22.851562 15.367188 -21.75 15.078125 -20.3125 L 25.90625 -20.3125 C 25.625 -21.707031 25.007812 -22.800781 24.0625 -23.59375 C 23.125 -24.394531 21.9375 -24.796875 20.5 -24.796875 Z M 20.5 -24.796875 " />
            </g>
        </g>
    </g>
    <g fill="#3b94ff" fill-opacity="1">
        <g transform="translate(102.574, 50.079222)">
            <g>
                <path
                    d="M 16.3125 -30.03125 C 18.769531 -32.863281 22.398438 -34.28125 27.203125 -34.28125 L 27.203125 -21.96875 C 26.097656 -22.132812 25.070312 -22.21875 24.125 -22.21875 C 19.363281 -22.21875 16.984375 -19.796875 16.984375 -14.953125 L 16.984375 0 L 3.078125 0 L 3.078125 -33.671875 L 16.3125 -33.671875 Z M 16.3125 -30.03125 " />
            </g>
        </g>
    </g>
    <g fill="#3b94ff" fill-opacity="1">
        <g transform="translate(130.634548, 50.079222)">
            <g>
                <path
                    d="M 3.078125 -33.671875 L 16.984375 -33.671875 L 16.984375 0 L 3.078125 0 Z M 10.03125 -36.375 C 7.53125 -36.375 5.507812 -37.039062 3.96875 -38.375 C 2.4375 -39.707031 1.671875 -41.398438 1.671875 -43.453125 C 1.671875 -45.503906 2.4375 -47.195312 3.96875 -48.53125 C 5.507812 -49.863281 7.53125 -50.53125 10.03125 -50.53125 C 12.582031 -50.53125 14.613281 -49.894531 16.125 -48.625 C 17.644531 -47.351562 18.40625 -45.710938 18.40625 -43.703125 C 18.40625 -41.566406 17.644531 -39.8125 16.125 -38.4375 C 14.613281 -37.0625 12.582031 -36.375 10.03125 -36.375 Z M 10.03125 -36.375 " />
            </g>
        </g>
    </g>
    <g fill="#3b94ff" fill-opacity="1">
        <g transform="translate(150.695379, 50.079222)">
            <g>
                <path
                    d="M 18.09375 -31.8125 L 25.421875 -31.8125 L 25.421875 -21.671875 L 18.53125 -21.671875 L 18.53125 0 L 4.609375 0 L 4.609375 -21.671875 L 0 -21.671875 L 0 -31.8125 L 4.609375 -31.8125 L 4.609375 -32 C 4.609375 -36.394531 5.921875 -39.875 8.546875 -42.4375 C 11.179688 -45 14.878906 -46.28125 19.640625 -46.28125 C 21.191406 -46.28125 22.707031 -46.132812 24.1875 -45.84375 C 25.664062 -45.5625 26.894531 -45.15625 27.875 -44.625 L 24.5625 -34.953125 C 23.40625 -35.492188 22.359375 -35.765625 21.421875 -35.765625 C 20.390625 -35.765625 19.578125 -35.441406 18.984375 -34.796875 C 18.390625 -34.160156 18.09375 -33.1875 18.09375 -31.875 Z M 18.09375 -31.8125 " />
            </g>
        </g>
    </g>
    <g fill="#3b94ff" fill-opacity="1">
        <g transform="translate(176.909833, 50.079222)">
            <g>
                <path
                    d="M 40.5625 -33.671875 L 26.71875 0.671875 C 24.945312 5.066406 22.75 8.144531 20.125 9.90625 C 17.5 11.675781 14.28125 12.5625 10.46875 12.5625 C 8.570312 12.5625 6.671875 12.28125 4.765625 11.71875 C 2.859375 11.164062 1.351562 10.441406 0.25 9.546875 L 4.859375 0 C 5.554688 0.53125 6.347656 0.957031 7.234375 1.28125 C 8.117188 1.613281 8.96875 1.78125 9.78125 1.78125 C 11.300781 1.78125 12.453125 1.332031 13.234375 0.4375 L -0.921875 -33.671875 L 13.359375 -33.671875 L 20.3125 -15.640625 L 27.390625 -33.671875 Z M 40.5625 -33.671875 " />
            </g>
        </g>
    </g>
    <g fill="#3b94ff" fill-opacity="1">
        <g transform="translate(216.539189, 50.079222)">
            <g>
                <path
                    d="M 3.078125 -33.671875 L 16.984375 -33.671875 L 16.984375 0 L 3.078125 0 Z M 10.03125 -36.375 C 7.53125 -36.375 5.507812 -37.039062 3.96875 -38.375 C 2.4375 -39.707031 1.671875 -41.398438 1.671875 -43.453125 C 1.671875 -45.503906 2.4375 -47.195312 3.96875 -48.53125 C 5.507812 -49.863281 7.53125 -50.53125 10.03125 -50.53125 C 12.582031 -50.53125 14.613281 -49.894531 16.125 -48.625 C 17.644531 -47.351562 18.40625 -45.710938 18.40625 -43.703125 C 18.40625 -41.566406 17.644531 -39.8125 16.125 -38.4375 C 14.613281 -37.0625 12.582031 -36.375 10.03125 -36.375 Z M 10.03125 -36.375 " />
            </g>
        </g>
    </g>
    <g fill="#3b94ff" fill-opacity="1">
        <g transform="translate(236.60003, 50.079222)">
            <g>
                <path
                    d="M 26.46875 -34.28125 C 30.613281 -34.28125 33.945312 -33.023438 36.46875 -30.515625 C 38.988281 -28.015625 40.25 -24.242188 40.25 -19.203125 L 40.25 0 L 26.34375 0 L 26.34375 -16.796875 C 26.34375 -20.660156 24.96875 -22.59375 22.21875 -22.59375 C 20.65625 -22.59375 19.390625 -22.046875 18.421875 -20.953125 C 17.460938 -19.867188 16.984375 -18.15625 16.984375 -15.8125 L 16.984375 0 L 3.078125 0 L 3.078125 -33.671875 L 16.3125 -33.671875 L 16.3125 -30.34375 C 17.625 -31.65625 19.140625 -32.640625 20.859375 -33.296875 C 22.585938 -33.953125 24.457031 -34.28125 26.46875 -34.28125 Z M 26.46875 -34.28125 " />
            </g>
        </g>
    </g>
    <g fill="#3b94ff" fill-opacity="1">
        <g transform="translate(279.798487, 50.079222)">
            <g>
                <path
                    d="M 40.6875 -33.671875 L 40.6875 -6.703125 C 40.6875 -0.304688 38.910156 4.5 35.359375 7.71875 C 31.804688 10.945312 26.75 12.5625 20.1875 12.5625 C 16.820312 12.5625 13.679688 12.203125 10.765625 11.484375 C 7.859375 10.765625 5.378906 9.726562 3.328125 8.375 L 8 -1.109375 C 9.3125 -0.117188 10.972656 0.679688 12.984375 1.296875 C 14.992188 1.910156 16.921875 2.21875 18.765625 2.21875 C 21.554688 2.21875 23.585938 1.617188 24.859375 0.421875 C 26.128906 -0.765625 26.765625 -2.503906 26.765625 -4.796875 L 26.765625 -5.421875 C 24.679688 -3.035156 21.585938 -1.84375 17.484375 -1.84375 C 14.609375 -1.84375 11.925781 -2.507812 9.4375 -3.84375 C 6.957031 -5.175781 4.976562 -7.082031 3.5 -9.5625 C 2.03125 -12.050781 1.296875 -14.894531 1.296875 -18.09375 C 1.296875 -21.289062 2.03125 -24.117188 3.5 -26.578125 C 4.976562 -29.046875 6.957031 -30.945312 9.4375 -32.28125 C 11.925781 -33.613281 14.609375 -34.28125 17.484375 -34.28125 C 22.078125 -34.28125 25.398438 -32.800781 27.453125 -29.84375 L 27.453125 -33.671875 Z M 21.171875 -12.671875 C 22.816406 -12.671875 24.179688 -13.171875 25.265625 -14.171875 C 26.347656 -15.179688 26.890625 -16.488281 26.890625 -18.09375 C 26.890625 -19.695312 26.347656 -20.988281 25.265625 -21.96875 C 24.179688 -22.957031 22.816406 -23.453125 21.171875 -23.453125 C 19.492188 -23.453125 18.109375 -22.957031 17.015625 -21.96875 C 15.929688 -20.988281 15.390625 -19.695312 15.390625 -18.09375 C 15.390625 -16.488281 15.941406 -15.179688 17.046875 -14.171875 C 18.148438 -13.171875 19.523438 -12.671875 21.171875 -12.671875 Z M 21.171875 -12.671875 " />
            </g>
        </g>
    </g>
    <g fill="#3b94ff" fill-opacity="1">
        <g transform="translate(323.550808, 50.079222)">
            <g>
                <path
                    d="M 9.359375 0.609375 C 7.015625 0.609375 5.070312 -0.132812 3.53125 -1.625 C 2 -3.125 1.234375 -5.046875 1.234375 -7.390625 C 1.234375 -9.722656 2 -11.617188 3.53125 -13.078125 C 5.070312 -14.535156 7.015625 -15.265625 9.359375 -15.265625 C 11.691406 -15.265625 13.628906 -14.535156 15.171875 -13.078125 C 16.710938 -11.617188 17.484375 -9.722656 17.484375 -7.390625 C 17.484375 -5.046875 16.710938 -3.125 15.171875 -1.625 C 13.628906 -0.132812 11.691406 0.609375 9.359375 0.609375 Z M 9.359375 0.609375 " />
            </g>
        </g>
    </g>
    <g fill="#3b94ff" fill-opacity="1">
        <g transform="translate(342.257817, 50.079222)">
            <g>
                <path
                    d="M 9.359375 0.609375 C 7.015625 0.609375 5.070312 -0.132812 3.53125 -1.625 C 2 -3.125 1.234375 -5.046875 1.234375 -7.390625 C 1.234375 -9.722656 2 -11.617188 3.53125 -13.078125 C 5.070312 -14.535156 7.015625 -15.265625 9.359375 -15.265625 C 11.691406 -15.265625 13.628906 -14.535156 15.171875 -13.078125 C 16.710938 -11.617188 17.484375 -9.722656 17.484375 -7.390625 C 17.484375 -5.046875 16.710938 -3.125 15.171875 -1.625 C 13.628906 -0.132812 11.691406 0.609375 9.359375 0.609375 Z M 9.359375 0.609375 " />
            </g>
        </g>
    </g>
</svg>